<svg preserveAspectRatio="none" overflow="visible" style="display: block;" width="24" height="24.1074" viewBox="0 0 24 24.1074" fill="none" xmlns="http://www.w3.org/2000/svg">
<g id="sber">
<path id="Vector" d="M20.6068 5C21.1588 5.7761 21.6263 6.61919 22 7.51241L11.4199 16L7 12.9833V9.35501L11.4199 12.3704L20.6068 5Z" fill="#2C2B2B"/>
<path id="Subtract" d="M12 0C14.8907 0 17.5426 1.02219 19.6141 2.72473L17.2091 4.51312C15.7323 3.4837 13.9367 2.88 12 2.88C6.96316 2.88 2.88 6.96316 2.88 12C2.88 17.0368 6.96316 21.12 12 21.12C17.0368 21.12 21.12 17.0368 21.12 12C21.12 11.9802 21.1197 11.9604 21.1195 11.9406L23.8221 9.93117C23.9389 10.6033 24 11.2945 24 12C24 18.6274 18.6274 24 12 24C5.37258 24 0 18.6274 0 12C0 5.37258 5.37258 0 12 0Z" fill="#2C2B2B"/>
</g>
</svg>
